<svg xmlns="http://www.w3.org/2000/svg" version="1.1" xmlns:xlink="http://www.w3.org/1999/xlink" xmlns:svgjs="http://svgjs.dev/svgjs" width="1440" height="633" preserveAspectRatio="none" viewBox="0 0 1440 633">
    <g mask="url(&quot;#SvgjsMask1228&quot;)" fill="none">
        <g mask="url(&quot;#SvgjsMask1229&quot;)">
            <path d="M780 500L1420 500" stroke-width="6.67" stroke="#3a7cc3"></path>
            <path d="M770 500 a10 10 0 1 0 20 0 a10 10 0 1 0 -20 0zM1410 500 a10 10 0 1 0 20 0 a10 10 0 1 0 -20 0z" fill="#3a7cc3"></path>
            <path d="M780 380L780 220L980 20L1380 20" stroke-width="6.67" stroke="#3a7cc3"></path>
            <path d="M770 380 a10 10 0 1 0 20 0 a10 10 0 1 0 -20 0zM1370 20 a10 10 0 1 0 20 0 a10 10 0 1 0 -20 0z" fill="#3a7cc3"></path>
            <path d="M380 340L460 420L460 620" stroke-width="6.67" stroke="#3a7cc3"></path>
            <path d="M370 340 a10 10 0 1 0 20 0 a10 10 0 1 0 -20 0zM450 620 a10 10 0 1 0 20 0 a10 10 0 1 0 -20 0z" fill="#3a7cc3"></path>
            <path d="M580 140L580 220L820 460L1260 460" stroke-width="6.67" stroke="#3a7cc3"></path>
            <path d="M570 140 a10 10 0 1 0 20 0 a10 10 0 1 0 -20 0zM1250 460 a10 10 0 1 0 20 0 a10 10 0 1 0 -20 0z" fill="#3a7cc3"></path>
            <path d="M340 540L340 500L420 420" stroke-width="6.67" stroke="#3a7cc3"></path>
            <path d="M330 540 a10 10 0 1 0 20 0 a10 10 0 1 0 -20 0zM410 420 a10 10 0 1 0 20 0 a10 10 0 1 0 -20 0z" fill="#3a7cc3"></path>
            <path d="M620 220L740 340" stroke-width="6.67" stroke="#3a7cc3"></path>
            <path d="M610 220 a10 10 0 1 0 20 0 a10 10 0 1 0 -20 0zM730 340 a10 10 0 1 0 20 0 a10 10 0 1 0 -20 0z" fill="#3a7cc3"></path>
            <path d="M140 580L140 300L220 220L220 180L380 20L580 20" stroke-width="6.67" stroke="#3a7cc3"></path>
            <path d="M130 580 a10 10 0 1 0 20 0 a10 10 0 1 0 -20 0zM570 20 a10 10 0 1 0 20 0 a10 10 0 1 0 -20 0z" fill="#3a7cc3"></path>
            <path d="M60 260L140 260L180 220L180 20" stroke-width="6.67" stroke="#3a7cc3"></path>
            <path d="M50 260 a10 10 0 1 0 20 0 a10 10 0 1 0 -20 0zM170 20 a10 10 0 1 0 20 0 a10 10 0 1 0 -20 0z" fill="#3a7cc3"></path>
            <path d="M300 260L220 260L180 300L180 620" stroke-width="6.67" stroke="#3a7cc3"></path>
            <path d="M290 260 a10 10 0 1 0 20 0 a10 10 0 1 0 -20 0zM170 620 a10 10 0 1 0 20 0 a10 10 0 1 0 -20 0z" fill="#3a7cc3"></path>
            <path d="M1100 140L1420 140" stroke-width="6.67" stroke="#3a7cc3"></path>
            <path d="M1090 140 a10 10 0 1 0 20 0 a10 10 0 1 0 -20 0zM1410 140 a10 10 0 1 0 20 0 a10 10 0 1 0 -20 0z" fill="#3a7cc3"></path>
            <path d="M540 540L540 580L500 620" stroke-width="6.67" stroke="#3a7cc3"></path>
            <path d="M530 540 a10 10 0 1 0 20 0 a10 10 0 1 0 -20 0zM490 620 a10 10 0 1 0 20 0 a10 10 0 1 0 -20 0z" fill="#3a7cc3"></path>
            <path d="M60 540L140 620" stroke-width="6.67" stroke="#3a7cc3"></path>
            <path d="M50 540 a10 10 0 1 0 20 0 a10 10 0 1 0 -20 0zM130 620 a10 10 0 1 0 20 0 a10 10 0 1 0 -20 0z" fill="#3a7cc3"></path>
            <path d="M820 20L740 20L620 140L620 180L740 300" stroke-width="6.67" stroke="#3a7cc3"></path>
            <path d="M810 20 a10 10 0 1 0 20 0 a10 10 0 1 0 -20 0zM730 300 a10 10 0 1 0 20 0 a10 10 0 1 0 -20 0z" fill="#3a7cc3"></path>
            <path d="M1420 540L1300 540L1220 620L660 620" stroke-width="6.67" stroke="#3a7cc3"></path>
            <path d="M1410 540 a10 10 0 1 0 20 0 a10 10 0 1 0 -20 0zM650 620 a10 10 0 1 0 20 0 a10 10 0 1 0 -20 0z" fill="#3a7cc3"></path>
            <path d="M1340 100L1220 100L1180 60L1100 60L1020 140L900 140L860 180L860 420" stroke-width="6.67" stroke="#3a7cc3"></path>
            <path d="M1330 100 a10 10 0 1 0 20 0 a10 10 0 1 0 -20 0zM850 420 a10 10 0 1 0 20 0 a10 10 0 1 0 -20 0z" fill="#3a7cc3"></path>
            <path d="M860 20L700 180L660 180" stroke-width="6.67" stroke="#3a7cc3"></path>
            <path d="M850 20 a10 10 0 1 0 20 0 a10 10 0 1 0 -20 0zM650 180 a10 10 0 1 0 20 0 a10 10 0 1 0 -20 0z" fill="#3a7cc3"></path>
            <path d="M1260 380L1420 380" stroke-width="6.67" stroke="#3a7cc3"></path>
            <path d="M1250 380 a10 10 0 1 0 20 0 a10 10 0 1 0 -20 0zM1410 380 a10 10 0 1 0 20 0 a10 10 0 1 0 -20 0z" fill="#3a7cc3"></path>
            <path d="M660 540L660 420L340 100" stroke-width="6.67" stroke="#3a7cc3"></path>
            <path d="M650 540 a10 10 0 1 0 20 0 a10 10 0 1 0 -20 0zM330 100 a10 10 0 1 0 20 0 a10 10 0 1 0 -20 0z" fill="#3a7cc3"></path>
            <path d="M1380 260L1420 300L1420 340" stroke-width="6.67" stroke="#3a7cc3"></path>
            <path d="M1370 260 a10 10 0 1 0 20 0 a10 10 0 1 0 -20 0zM1410 340 a10 10 0 1 0 20 0 a10 10 0 1 0 -20 0z" fill="#3a7cc3"></path>
            <path d="M380 260L340 300L220 300" stroke-width="6.67" stroke="#3a7cc3"></path>
            <path d="M370 260 a10 10 0 1 0 20 0 a10 10 0 1 0 -20 0zM210 300 a10 10 0 1 0 20 0 a10 10 0 1 0 -20 0z" fill="#3a7cc3"></path>
            <path d="M580 620L580 580L620 540L620 420L460 260L420 260L380 300" stroke-width="6.67" stroke="#3a7cc3"></path>
            <path d="M570 620 a10 10 0 1 0 20 0 a10 10 0 1 0 -20 0zM370 300 a10 10 0 1 0 20 0 a10 10 0 1 0 -20 0z" fill="#3a7cc3"></path>
            <path d="M820 100L700 220" stroke-width="6.67" stroke="#3a7cc3"></path>
            <path d="M810 100 a10 10 0 1 0 20 0 a10 10 0 1 0 -20 0zM690 220 a10 10 0 1 0 20 0 a10 10 0 1 0 -20 0z" fill="#3a7cc3"></path>
            <path d="M500 500L580 500" stroke-width="6.67" stroke="#3a7cc3"></path>
            <path d="M490 500 a10 10 0 1 0 20 0 a10 10 0 1 0 -20 0zM570 500 a10 10 0 1 0 20 0 a10 10 0 1 0 -20 0z" fill="#3a7cc3"></path>
            <path d="M1100 260L980 380L980 420" stroke-width="6.67" stroke="#3a7cc3"></path>
            <path d="M1090 260 a10 10 0 1 0 20 0 a10 10 0 1 0 -20 0zM970 420 a10 10 0 1 0 20 0 a10 10 0 1 0 -20 0z" fill="#3a7cc3"></path>
            <path d="M460 180L460 60" stroke-width="6.67" stroke="#3a7cc3"></path>
            <path d="M450 180 a10 10 0 1 0 20 0 a10 10 0 1 0 -20 0zM450 60 a10 10 0 1 0 20 0 a10 10 0 1 0 -20 0z" fill="#3a7cc3"></path>
            <path d="M700 460L700 380L500 180L500 60" stroke-width="6.67" stroke="#3a7cc3"></path>
            <path d="M690 460 a10 10 0 1 0 20 0 a10 10 0 1 0 -20 0zM490 60 a10 10 0 1 0 20 0 a10 10 0 1 0 -20 0z" fill="#3a7cc3"></path>
            <path d="M20 500L100 500" stroke-width="6.67" stroke="#3a7cc3"></path>
            <path d="M10 500 a10 10 0 1 0 20 0 a10 10 0 1 0 -20 0zM90 500 a10 10 0 1 0 20 0 a10 10 0 1 0 -20 0z" fill="#3a7cc3"></path>
            <path d="M1020 300L900 420" stroke-width="6.67" stroke="#3a7cc3"></path>
            <path d="M1010 300 a10 10 0 1 0 20 0 a10 10 0 1 0 -20 0zM890 420 a10 10 0 1 0 20 0 a10 10 0 1 0 -20 0z" fill="#3a7cc3"></path>
            <path d="M1100 220L1140 260L1220 260L1300 340L1380 340" stroke-width="6.67" stroke="#3a7cc3"></path>
            <path d="M1090 220 a10 10 0 1 0 20 0 a10 10 0 1 0 -20 0zM1370 340 a10 10 0 1 0 20 0 a10 10 0 1 0 -20 0z" fill="#3a7cc3"></path>
            <path d="M1220 180L1340 180L1420 260" stroke-width="6.67" stroke="#3a7cc3"></path>
            <path d="M1210 180 a10 10 0 1 0 20 0 a10 10 0 1 0 -20 0zM1410 260 a10 10 0 1 0 20 0 a10 10 0 1 0 -20 0z" fill="#3a7cc3"></path>
            <path d="M700 20L660 60L540 60" stroke-width="6.67" stroke="#3a7cc3"></path>
            <path d="M690 20 a10 10 0 1 0 20 0 a10 10 0 1 0 -20 0zM530 60 a10 10 0 1 0 20 0 a10 10 0 1 0 -20 0z" fill="#3a7cc3"></path>
            <path d="M220 100L260 100L340 20" stroke-width="6.67" stroke="#3a7cc3"></path>
            <path d="M210 100 a10 10 0 1 0 20 0 a10 10 0 1 0 -20 0zM330 20 a10 10 0 1 0 20 0 a10 10 0 1 0 -20 0z" fill="#3a7cc3"></path>
            <path d="M1100 540L1220 540" stroke-width="6.67" stroke="#3a7cc3"></path>
            <path d="M1090 540 a10 10 0 1 0 20 0 a10 10 0 1 0 -20 0zM1210 540 a10 10 0 1 0 20 0 a10 10 0 1 0 -20 0z" fill="#3a7cc3"></path>
            <path d="M980 100L1020 100L1060 60" stroke-width="6.67" stroke="#3a7cc3"></path>
            <path d="M970 100 a10 10 0 1 0 20 0 a10 10 0 1 0 -20 0zM1050 60 a10 10 0 1 0 20 0 a10 10 0 1 0 -20 0z" fill="#3a7cc3"></path>
            <path d="M900 260L1060 260" stroke-width="6.67" stroke="#3a7cc3"></path>
            <path d="M890 260 a10 10 0 1 0 20 0 a10 10 0 1 0 -20 0zM1050 260 a10 10 0 1 0 20 0 a10 10 0 1 0 -20 0z" fill="#3a7cc3"></path>
            <path d="M420 220L260 220" stroke-width="6.67" stroke="#3a7cc3"></path>
            <path d="M410 220 a10 10 0 1 0 20 0 a10 10 0 1 0 -20 0zM250 220 a10 10 0 1 0 20 0 a10 10 0 1 0 -20 0z" fill="#3a7cc3"></path>
            <path d="M260 420L340 340" stroke-width="6.67" stroke="#3a7cc3"></path>
            <path d="M250 420 a10 10 0 1 0 20 0 a10 10 0 1 0 -20 0zM330 340 a10 10 0 1 0 20 0 a10 10 0 1 0 -20 0z" fill="#3a7cc3"></path>
            <path d="M1100 180L1060 220L900 220" stroke-width="6.67" stroke="#3a7cc3"></path>
            <path d="M1090 180 a10 10 0 1 0 20 0 a10 10 0 1 0 -20 0zM890 220 a10 10 0 1 0 20 0 a10 10 0 1 0 -20 0z" fill="#3a7cc3"></path>
            <path d="M1180 380L1100 300" stroke-width="6.67" stroke="#3a7cc3"></path>
            <path d="M1170 380 a10 10 0 1 0 20 0 a10 10 0 1 0 -20 0zM1090 300 a10 10 0 1 0 20 0 a10 10 0 1 0 -20 0z" fill="#3a7cc3"></path>
            <path d="M140 100L140 220" stroke-width="6.67" stroke="#3a7cc3"></path>
            <path d="M130 100 a10 10 0 1 0 20 0 a10 10 0 1 0 -20 0zM130 220 a10 10 0 1 0 20 0 a10 10 0 1 0 -20 0z" fill="#3a7cc3"></path>
            <path d="M300 420L380 420" stroke-width="6.67" stroke="#3a7cc3"></path>
            <path d="M290 420 a10 10 0 1 0 20 0 a10 10 0 1 0 -20 0zM370 420 a10 10 0 1 0 20 0 a10 10 0 1 0 -20 0z" fill="#3a7cc3"></path>
            <path d="M1020 180L900 180" stroke-width="6.67" stroke="#3a7cc3"></path>
            <path d="M1010 180 a10 10 0 1 0 20 0 a10 10 0 1 0 -20 0zM890 180 a10 10 0 1 0 20 0 a10 10 0 1 0 -20 0z" fill="#3a7cc3"></path>
            <path d="M340 580L420 500L420 460" stroke-width="6.67" stroke="#3a7cc3"></path>
            <path d="M330 580 a10 10 0 1 0 20 0 a10 10 0 1 0 -20 0zM410 460 a10 10 0 1 0 20 0 a10 10 0 1 0 -20 0z" fill="#3a7cc3"></path>
            <path d="M300 580L220 500L220 340" stroke-width="6.67" stroke="#3a7cc3"></path>
            <path d="M290 580 a10 10 0 1 0 20 0 a10 10 0 1 0 -20 0zM210 340 a10 10 0 1 0 20 0 a10 10 0 1 0 -20 0z" fill="#3a7cc3"></path>
            <path d="M1100 380L1020 380" stroke-width="6.67" stroke="#3a7cc3"></path>
            <path d="M1090 380 a10 10 0 1 0 20 0 a10 10 0 1 0 -20 0zM1010 380 a10 10 0 1 0 20 0 a10 10 0 1 0 -20 0z" fill="#3a7cc3"></path>
            <path d="M1380 300L1300 220L1220 220" stroke-width="6.67" stroke="#3a7cc3"></path>
            <path d="M1370 300 a10 10 0 1 0 20 0 a10 10 0 1 0 -20 0zM1210 220 a10 10 0 1 0 20 0 a10 10 0 1 0 -20 0z" fill="#3a7cc3"></path>
            <path d="M1420 20L1380 60L1220 60" stroke-width="6.67" stroke="#3a7cc3"></path>
            <path d="M1410 20 a10 10 0 1 0 20 0 a10 10 0 1 0 -20 0zM1210 60 a10 10 0 1 0 20 0 a10 10 0 1 0 -20 0z" fill="#3a7cc3"></path>
            <path d="M100 220L20 140L20 100" stroke-width="6.67" stroke="#3a7cc3"></path>
            <path d="M90 220 a10 10 0 1 0 20 0 a10 10 0 1 0 -20 0zM10 100 a10 10 0 1 0 20 0 a10 10 0 1 0 -20 0z" fill="#3a7cc3"></path>
            <path d="M1300 580L1340 620L1420 620" stroke-width="6.67" stroke="#3a7cc3"></path>
            <path d="M1290 580 a10 10 0 1 0 20 0 a10 10 0 1 0 -20 0zM1410 620 a10 10 0 1 0 20 0 a10 10 0 1 0 -20 0z" fill="#3a7cc3"></path>
            <path d="M1260 420L1300 460L1420 460" stroke-width="6.67" stroke="#3a7cc3"></path>
            <path d="M1250 420 a10 10 0 1 0 20 0 a10 10 0 1 0 -20 0zM1410 460 a10 10 0 1 0 20 0 a10 10 0 1 0 -20 0z" fill="#3a7cc3"></path>
            <path d="M1140 580L1220 580" stroke-width="6.67" stroke="#3a7cc3"></path>
            <path d="M1130 580 a10 10 0 1 0 20 0 a10 10 0 1 0 -20 0zM1210 580 a10 10 0 1 0 20 0 a10 10 0 1 0 -20 0z" fill="#3a7cc3"></path>
            <path d="M740 420L740 500L780 540L780 580" stroke-width="6.67" stroke="#3a7cc3"></path>
            <path d="M730 420 a10 10 0 1 0 20 0 a10 10 0 1 0 -20 0zM770 580 a10 10 0 1 0 20 0 a10 10 0 1 0 -20 0z" fill="#3a7cc3"></path>
            <path d="M500 340L580 420" stroke-width="6.67" stroke="#3a7cc3"></path>
            <path d="M490 340 a10 10 0 1 0 20 0 a10 10 0 1 0 -20 0zM570 420 a10 10 0 1 0 20 0 a10 10 0 1 0 -20 0z" fill="#3a7cc3"></path>
            <path d="M620 620L700 540L740 540" stroke-width="6.67" stroke="#3a7cc3"></path>
            <path d="M610 620 a10 10 0 1 0 20 0 a10 10 0 1 0 -20 0zM730 540 a10 10 0 1 0 20 0 a10 10 0 1 0 -20 0z" fill="#3a7cc3"></path>
            <path d="M20 540L100 620" stroke-width="6.67" stroke="#3a7cc3"></path>
            <path d="M10 540 a10 10 0 1 0 20 0 a10 10 0 1 0 -20 0zM90 620 a10 10 0 1 0 20 0 a10 10 0 1 0 -20 0z" fill="#3a7cc3"></path>
            <path d="M740 60L660 140" stroke-width="6.67" stroke="#3a7cc3"></path>
            <path d="M730 60 a10 10 0 1 0 20 0 a10 10 0 1 0 -20 0zM650 140 a10 10 0 1 0 20 0 a10 10 0 1 0 -20 0z" fill="#3a7cc3"></path>
            <path d="M100 300L100 460" stroke-width="6.67" stroke="#3a7cc3"></path>
            <path d="M90 300 a10 10 0 1 0 20 0 a10 10 0 1 0 -20 0zM90 460 a10 10 0 1 0 20 0 a10 10 0 1 0 -20 0z" fill="#3a7cc3"></path>
            <path d="M300 140L340 140L380 180" stroke-width="6.67" stroke="#3a7cc3"></path>
            <path d="M290 140 a10 10 0 1 0 20 0 a10 10 0 1 0 -20 0zM370 180 a10 10 0 1 0 20 0 a10 10 0 1 0 -20 0z" fill="#3a7cc3"></path>
        </g>
    </g>
    <defs>
        <mask id="SvgjsMask1228">
            <rect width="1440" height="633" fill="#ffffff"></rect>
        </mask>
        <mask id="SvgjsMask1229">
            <rect width="1440" height="633" fill="white"></rect>
            <path d="M775 500 a5 5 0 1 0 10 0 a5 5 0 1 0 -10 0zM1415 500 a5 5 0 1 0 10 0 a5 5 0 1 0 -10 0z" fill="black"></path>
            <path d="M775 380 a5 5 0 1 0 10 0 a5 5 0 1 0 -10 0zM1375 20 a5 5 0 1 0 10 0 a5 5 0 1 0 -10 0z" fill="black"></path>
            <path d="M375 340 a5 5 0 1 0 10 0 a5 5 0 1 0 -10 0zM455 620 a5 5 0 1 0 10 0 a5 5 0 1 0 -10 0z" fill="black"></path>
            <path d="M575 140 a5 5 0 1 0 10 0 a5 5 0 1 0 -10 0zM1255 460 a5 5 0 1 0 10 0 a5 5 0 1 0 -10 0z" fill="black"></path>
            <path d="M335 540 a5 5 0 1 0 10 0 a5 5 0 1 0 -10 0zM415 420 a5 5 0 1 0 10 0 a5 5 0 1 0 -10 0z" fill="black"></path>
            <path d="M615 220 a5 5 0 1 0 10 0 a5 5 0 1 0 -10 0zM735 340 a5 5 0 1 0 10 0 a5 5 0 1 0 -10 0z" fill="black"></path>
            <path d="M135 580 a5 5 0 1 0 10 0 a5 5 0 1 0 -10 0zM575 20 a5 5 0 1 0 10 0 a5 5 0 1 0 -10 0z" fill="black"></path>
            <path d="M55 260 a5 5 0 1 0 10 0 a5 5 0 1 0 -10 0zM175 20 a5 5 0 1 0 10 0 a5 5 0 1 0 -10 0z" fill="black"></path>
            <path d="M295 260 a5 5 0 1 0 10 0 a5 5 0 1 0 -10 0zM175 620 a5 5 0 1 0 10 0 a5 5 0 1 0 -10 0z" fill="black"></path>
            <path d="M1095 140 a5 5 0 1 0 10 0 a5 5 0 1 0 -10 0zM1415 140 a5 5 0 1 0 10 0 a5 5 0 1 0 -10 0z" fill="black"></path>
            <path d="M535 540 a5 5 0 1 0 10 0 a5 5 0 1 0 -10 0zM495 620 a5 5 0 1 0 10 0 a5 5 0 1 0 -10 0z" fill="black"></path>
            <path d="M55 540 a5 5 0 1 0 10 0 a5 5 0 1 0 -10 0zM135 620 a5 5 0 1 0 10 0 a5 5 0 1 0 -10 0z" fill="black"></path>
            <path d="M815 20 a5 5 0 1 0 10 0 a5 5 0 1 0 -10 0zM735 300 a5 5 0 1 0 10 0 a5 5 0 1 0 -10 0z" fill="black"></path>
            <path d="M1415 540 a5 5 0 1 0 10 0 a5 5 0 1 0 -10 0zM655 620 a5 5 0 1 0 10 0 a5 5 0 1 0 -10 0z" fill="black"></path>
            <path d="M1335 100 a5 5 0 1 0 10 0 a5 5 0 1 0 -10 0zM855 420 a5 5 0 1 0 10 0 a5 5 0 1 0 -10 0z" fill="black"></path>
            <path d="M855 20 a5 5 0 1 0 10 0 a5 5 0 1 0 -10 0zM655 180 a5 5 0 1 0 10 0 a5 5 0 1 0 -10 0z" fill="black"></path>
            <path d="M1255 380 a5 5 0 1 0 10 0 a5 5 0 1 0 -10 0zM1415 380 a5 5 0 1 0 10 0 a5 5 0 1 0 -10 0z" fill="black"></path>
            <path d="M655 540 a5 5 0 1 0 10 0 a5 5 0 1 0 -10 0zM335 100 a5 5 0 1 0 10 0 a5 5 0 1 0 -10 0z" fill="black"></path>
            <path d="M1375 260 a5 5 0 1 0 10 0 a5 5 0 1 0 -10 0zM1415 340 a5 5 0 1 0 10 0 a5 5 0 1 0 -10 0z" fill="black"></path>
            <path d="M375 260 a5 5 0 1 0 10 0 a5 5 0 1 0 -10 0zM215 300 a5 5 0 1 0 10 0 a5 5 0 1 0 -10 0z" fill="black"></path>
            <path d="M575 620 a5 5 0 1 0 10 0 a5 5 0 1 0 -10 0zM375 300 a5 5 0 1 0 10 0 a5 5 0 1 0 -10 0z" fill="black"></path>
            <path d="M815 100 a5 5 0 1 0 10 0 a5 5 0 1 0 -10 0zM695 220 a5 5 0 1 0 10 0 a5 5 0 1 0 -10 0z" fill="black"></path>
            <path d="M495 500 a5 5 0 1 0 10 0 a5 5 0 1 0 -10 0zM575 500 a5 5 0 1 0 10 0 a5 5 0 1 0 -10 0z" fill="black"></path>
            <path d="M1095 260 a5 5 0 1 0 10 0 a5 5 0 1 0 -10 0zM975 420 a5 5 0 1 0 10 0 a5 5 0 1 0 -10 0z" fill="black"></path>
            <path d="M455 180 a5 5 0 1 0 10 0 a5 5 0 1 0 -10 0zM455 60 a5 5 0 1 0 10 0 a5 5 0 1 0 -10 0z" fill="black"></path>
            <path d="M695 460 a5 5 0 1 0 10 0 a5 5 0 1 0 -10 0zM495 60 a5 5 0 1 0 10 0 a5 5 0 1 0 -10 0z" fill="black"></path>
            <path d="M15 500 a5 5 0 1 0 10 0 a5 5 0 1 0 -10 0zM95 500 a5 5 0 1 0 10 0 a5 5 0 1 0 -10 0z" fill="black"></path>
            <path d="M1015 300 a5 5 0 1 0 10 0 a5 5 0 1 0 -10 0zM895 420 a5 5 0 1 0 10 0 a5 5 0 1 0 -10 0z" fill="black"></path>
            <path d="M1095 220 a5 5 0 1 0 10 0 a5 5 0 1 0 -10 0zM1375 340 a5 5 0 1 0 10 0 a5 5 0 1 0 -10 0z" fill="black"></path>
            <path d="M1215 180 a5 5 0 1 0 10 0 a5 5 0 1 0 -10 0zM1415 260 a5 5 0 1 0 10 0 a5 5 0 1 0 -10 0z" fill="black"></path>
            <path d="M695 20 a5 5 0 1 0 10 0 a5 5 0 1 0 -10 0zM535 60 a5 5 0 1 0 10 0 a5 5 0 1 0 -10 0z" fill="black"></path>
            <path d="M215 100 a5 5 0 1 0 10 0 a5 5 0 1 0 -10 0zM335 20 a5 5 0 1 0 10 0 a5 5 0 1 0 -10 0z" fill="black"></path>
            <path d="M1095 540 a5 5 0 1 0 10 0 a5 5 0 1 0 -10 0zM1215 540 a5 5 0 1 0 10 0 a5 5 0 1 0 -10 0z" fill="black"></path>
            <path d="M975 100 a5 5 0 1 0 10 0 a5 5 0 1 0 -10 0zM1055 60 a5 5 0 1 0 10 0 a5 5 0 1 0 -10 0z" fill="black"></path>
            <path d="M895 260 a5 5 0 1 0 10 0 a5 5 0 1 0 -10 0zM1055 260 a5 5 0 1 0 10 0 a5 5 0 1 0 -10 0z" fill="black"></path>
            <path d="M415 220 a5 5 0 1 0 10 0 a5 5 0 1 0 -10 0zM255 220 a5 5 0 1 0 10 0 a5 5 0 1 0 -10 0z" fill="black"></path>
            <path d="M255 420 a5 5 0 1 0 10 0 a5 5 0 1 0 -10 0zM335 340 a5 5 0 1 0 10 0 a5 5 0 1 0 -10 0z" fill="black"></path>
            <path d="M1095 180 a5 5 0 1 0 10 0 a5 5 0 1 0 -10 0zM895 220 a5 5 0 1 0 10 0 a5 5 0 1 0 -10 0z" fill="black"></path>
            <path d="M1175 380 a5 5 0 1 0 10 0 a5 5 0 1 0 -10 0zM1095 300 a5 5 0 1 0 10 0 a5 5 0 1 0 -10 0z" fill="black"></path>
            <path d="M135 100 a5 5 0 1 0 10 0 a5 5 0 1 0 -10 0zM135 220 a5 5 0 1 0 10 0 a5 5 0 1 0 -10 0z" fill="black"></path>
            <path d="M295 420 a5 5 0 1 0 10 0 a5 5 0 1 0 -10 0zM375 420 a5 5 0 1 0 10 0 a5 5 0 1 0 -10 0z" fill="black"></path>
            <path d="M1015 180 a5 5 0 1 0 10 0 a5 5 0 1 0 -10 0zM895 180 a5 5 0 1 0 10 0 a5 5 0 1 0 -10 0z" fill="black"></path>
            <path d="M335 580 a5 5 0 1 0 10 0 a5 5 0 1 0 -10 0zM415 460 a5 5 0 1 0 10 0 a5 5 0 1 0 -10 0z" fill="black"></path>
            <path d="M295 580 a5 5 0 1 0 10 0 a5 5 0 1 0 -10 0zM215 340 a5 5 0 1 0 10 0 a5 5 0 1 0 -10 0z" fill="black"></path>
            <path d="M1095 380 a5 5 0 1 0 10 0 a5 5 0 1 0 -10 0zM1015 380 a5 5 0 1 0 10 0 a5 5 0 1 0 -10 0z" fill="black"></path>
            <path d="M1375 300 a5 5 0 1 0 10 0 a5 5 0 1 0 -10 0zM1215 220 a5 5 0 1 0 10 0 a5 5 0 1 0 -10 0z" fill="black"></path>
            <path d="M1415 20 a5 5 0 1 0 10 0 a5 5 0 1 0 -10 0zM1215 60 a5 5 0 1 0 10 0 a5 5 0 1 0 -10 0z" fill="black"></path>
            <path d="M95 220 a5 5 0 1 0 10 0 a5 5 0 1 0 -10 0zM15 100 a5 5 0 1 0 10 0 a5 5 0 1 0 -10 0z" fill="black"></path>
            <path d="M1295 580 a5 5 0 1 0 10 0 a5 5 0 1 0 -10 0zM1415 620 a5 5 0 1 0 10 0 a5 5 0 1 0 -10 0z" fill="black"></path>
            <path d="M1255 420 a5 5 0 1 0 10 0 a5 5 0 1 0 -10 0zM1415 460 a5 5 0 1 0 10 0 a5 5 0 1 0 -10 0z" fill="black"></path>
            <path d="M1135 580 a5 5 0 1 0 10 0 a5 5 0 1 0 -10 0zM1215 580 a5 5 0 1 0 10 0 a5 5 0 1 0 -10 0z" fill="black"></path>
            <path d="M735 420 a5 5 0 1 0 10 0 a5 5 0 1 0 -10 0zM775 580 a5 5 0 1 0 10 0 a5 5 0 1 0 -10 0z" fill="black"></path>
            <path d="M495 340 a5 5 0 1 0 10 0 a5 5 0 1 0 -10 0zM575 420 a5 5 0 1 0 10 0 a5 5 0 1 0 -10 0z" fill="black"></path>
            <path d="M615 620 a5 5 0 1 0 10 0 a5 5 0 1 0 -10 0zM735 540 a5 5 0 1 0 10 0 a5 5 0 1 0 -10 0z" fill="black"></path>
            <path d="M15 540 a5 5 0 1 0 10 0 a5 5 0 1 0 -10 0zM95 620 a5 5 0 1 0 10 0 a5 5 0 1 0 -10 0z" fill="black"></path>
            <path d="M735 60 a5 5 0 1 0 10 0 a5 5 0 1 0 -10 0zM655 140 a5 5 0 1 0 10 0 a5 5 0 1 0 -10 0z" fill="black"></path>
            <path d="M95 300 a5 5 0 1 0 10 0 a5 5 0 1 0 -10 0zM95 460 a5 5 0 1 0 10 0 a5 5 0 1 0 -10 0z" fill="black"></path>
            <path d="M295 140 a5 5 0 1 0 10 0 a5 5 0 1 0 -10 0zM375 180 a5 5 0 1 0 10 0 a5 5 0 1 0 -10 0z" fill="black"></path>
        </mask>
    </defs>
</svg>